<svg id="Layer_1" data-name="Layer 1" xmlns="http://www.w3.org/2000/svg" viewBox="0 0 708.46 589.72"><defs><style>.cls-1{fill:#ed1c24;stroke:#ed1c24;stroke-miterlimit:10;}</style></defs><path class="cls-1" d="M1.16,390.48c31-80,48-84,59-137s61-160,95-177,76-4,106-16,41-47,85-57,123,6,161,35,146.49,97.9,166,122c17,21,0,0,22,40,19.43,35.33,4,26-63,25s-80,5-162-1-71-21.9-118.5,9.55-67.5,14.45-96.5,52.45-118,87-163,99S-6.06,409.13,1.16,390.48Z"/><path class="cls-1" d="M16.16,443.48c-32.48,33.78,220.94,178.37,378,139,175.39-44,263.91-175.83,308.79-303.21,45-127.71-227.79,5.21-254.79,31.21s-3,45-46,72-96-26-147-14S41.16,417.48,16.16,443.48Z"/></svg>