<svg id="Layer_1" data-name="Layer 1" xmlns="http://www.w3.org/2000/svg" viewBox="0 0 230.49 449.39"><defs><style>.cls-1{fill:#ee60a0;}</style></defs><path class="cls-1" d="M230.49,225.23c0-18.44-7.74-35.52-20.92-49.53a108.64,108.64,0,0,0,20.92-64.11C230.49,50,178.89,0,115.24,0S0,50,0,111.59A108.64,108.64,0,0,0,20.92,175.7C7.74,189.71,0,206.79,0,225.23c0,25.06,14.31,47.62,37.14,63.37C14.31,299.41,0,314.89,0,332.09c0,14.82,10.62,28.36,28.16,38.74-17.54,5.63-28.16,13-28.16,21,0,11.78,22.83,22.08,56.85,27.66C22.83,422.3,0,427.45,0,433.35c0,8.86,51.6,16,115.24,16s115.25-7.18,115.25-16c0-5.9-22.84-11.05-56.86-13.84,34-5.58,56.86-15.88,56.86-27.66,0-8-10.62-15.39-28.16-21,17.54-10.38,28.16-23.92,28.16-38.74,0-17.2-14.31-32.68-37.14-43.49C216.18,272.85,230.49,250.29,230.49,225.23Z"/></svg>