<svg id="Layer_1" data-name="Layer 1" xmlns="http://www.w3.org/2000/svg" viewBox="0 0 187.52 228.66"><defs><style>.cls-1{fill:#d171a1;}</style></defs><circle class="cls-1" cx="10.67" cy="10.67" r="10.67"/><circle class="cls-1" cx="38.37" cy="10.67" r="10.67"/><circle class="cls-1" cx="66.06" cy="10.67" r="10.67"/><circle class="cls-1" cx="93.76" cy="10.67" r="10.67"/><circle class="cls-1" cx="121.46" cy="10.67" r="10.67"/><circle class="cls-1" cx="149.15" cy="10.67" r="10.67"/><circle class="cls-1" cx="176.85" cy="10.67" r="10.67"/><circle class="cls-1" cx="10.67" cy="36.59" r="10.67"/><circle class="cls-1" cx="38.37" cy="36.59" r="10.67"/><circle class="cls-1" cx="66.06" cy="36.59" r="10.67"/><circle class="cls-1" cx="93.76" cy="36.59" r="10.67"/><circle class="cls-1" cx="121.46" cy="36.59" r="10.67"/><circle class="cls-1" cx="149.15" cy="36.59" r="10.67"/><circle class="cls-1" cx="176.85" cy="36.59" r="10.67"/><circle class="cls-1" cx="10.67" cy="62.5" r="10.67"/><circle class="cls-1" cx="38.37" cy="62.5" r="10.67"/><circle class="cls-1" cx="66.06" cy="62.5" r="10.67"/><circle class="cls-1" cx="93.76" cy="62.5" r="10.67"/><circle class="cls-1" cx="121.46" cy="62.5" r="10.67"/><circle class="cls-1" cx="149.15" cy="62.5" r="10.67"/><circle class="cls-1" cx="176.85" cy="62.5" r="10.67"/><circle class="cls-1" cx="10.67" cy="88.41" r="10.67"/><circle class="cls-1" cx="38.37" cy="88.41" r="10.67"/><circle class="cls-1" cx="66.06" cy="88.41" r="10.67"/><circle class="cls-1" cx="93.76" cy="88.41" r="10.67"/><circle class="cls-1" cx="121.46" cy="88.41" r="10.67"/><circle class="cls-1" cx="149.15" cy="88.41" r="10.67"/><circle class="cls-1" cx="176.85" cy="88.41" r="10.67"/><circle class="cls-1" cx="10.67" cy="114.33" r="10.67"/><circle class="cls-1" cx="38.37" cy="114.33" r="10.67"/><circle class="cls-1" cx="66.06" cy="114.33" r="10.67"/><circle class="cls-1" cx="93.76" cy="114.33" r="10.67"/><circle class="cls-1" cx="121.46" cy="114.33" r="10.67"/><circle class="cls-1" cx="149.15" cy="114.33" r="10.67"/><circle class="cls-1" cx="176.85" cy="114.33" r="10.67"/><circle class="cls-1" cx="10.67" cy="140.24" r="10.67"/><circle class="cls-1" cx="38.37" cy="140.24" r="10.67"/><circle class="cls-1" cx="66.06" cy="140.24" r="10.67"/><circle class="cls-1" cx="93.76" cy="140.24" r="10.67"/><circle class="cls-1" cx="121.46" cy="140.24" r="10.67"/><circle class="cls-1" cx="149.15" cy="140.24" r="10.67"/><circle class="cls-1" cx="176.85" cy="140.24" r="10.67"/><circle class="cls-1" cx="10.67" cy="166.16" r="10.67"/><circle class="cls-1" cx="38.37" cy="166.16" r="10.67"/><circle class="cls-1" cx="66.06" cy="166.16" r="10.67"/><circle class="cls-1" cx="93.76" cy="166.16" r="10.67"/><circle class="cls-1" cx="121.46" cy="166.16" r="10.67"/><circle class="cls-1" cx="149.15" cy="166.16" r="10.67"/><circle class="cls-1" cx="176.85" cy="166.16" r="10.67"/><circle class="cls-1" cx="10.67" cy="192.07" r="10.67"/><circle class="cls-1" cx="38.37" cy="192.07" r="10.67"/><circle class="cls-1" cx="66.06" cy="192.07" r="10.67"/><circle class="cls-1" cx="93.76" cy="192.07" r="10.67"/><circle class="cls-1" cx="121.46" cy="192.07" r="10.67"/><circle class="cls-1" cx="149.15" cy="192.07" r="10.67"/><circle class="cls-1" cx="176.85" cy="192.07" r="10.67"/><circle class="cls-1" cx="10.67" cy="217.99" r="10.67"/><circle class="cls-1" cx="38.37" cy="217.99" r="10.67"/><circle class="cls-1" cx="66.06" cy="217.99" r="10.67"/><circle class="cls-1" cx="93.76" cy="217.99" r="10.67"/><circle class="cls-1" cx="121.46" cy="217.99" r="10.67"/><circle class="cls-1" cx="149.15" cy="217.99" r="10.67"/><circle class="cls-1" cx="176.85" cy="217.99" r="10.67"/></svg>